{
    "asset" : {
        "generator" : "Khronos glTF Blender I/O v1.5.17",
        "version" : "2.0"
    },
    "scene" : 0,
    "scenes" : [
        {
            "name" : "Scene",
            "nodes" : [
                0,
                1,
                2,
                3,
                4,
                5,
                6,
                7,
                8,
                9,
                10
            ]
        }
    ],
    "nodes" : [
        {
            "mesh" : 0,
            "name" : "Cylinder.005",
            "rotation" : [
                0.26062479615211487,
                -0.011226408183574677,
                0.0363030768930912,
                0.9646921753883362
            ],
            "scale" : [
                0.051356010138988495,
                0.7900924682617188,
                0.051356010138988495
            ],
            "translation" : [
                0.18634887039661407,
                0.701089084148407,
                0.7568414211273193
            ]
        },
        {
            "mesh" : 0,
            "name" : "Cylinder.004",
            "rotation" : [
                0.26062479615211487,
                -0.011226408183574677,
                0.0363030768930912,
                0.9646921753883362
            ],
            "scale" : [
                0.051356010138988495,
                0.7900924682617188,
                0.051356010138988495
            ],
            "translation" : [
                0.07245662063360214,
                0.859976589679718,
                0.4813404679298401
            ]
        },
        {
            "mesh" : 0,
            "name" : "Cylinder.003",
            "rotation" : [
                -0.22371603548526764,
                -0.0596621111035347,
                0.10000862926244736,
                0.9676724076271057
            ],
            "scale" : [
                0.051356010138988495,
                0.7900924682617188,
                0.051356010138988495
            ],
            "translation" : [
                0,
                0.7393149733543396,
                -0.8132333755493164
            ]
        },
        {
            "mesh" : 0,
            "name" : "Cylinder.002",
            "rotation" : [
                -0.2039680778980255,
                -0.06187642738223076,
                0.10203765332698822,
                0.9716772437095642
            ],
            "scale" : [
                0.051356010138988495,
                0.7900924682617188,
                0.051356010138988495
            ],
            "translation" : [
                0.01444015558809042,
                0.8760891556739807,
                -0.460948646068573
            ]
        },
        {
            "mesh" : 1,
            "name" : "Cylinder.001",
            "rotation" : [
                -0.8978355526924133,
                0,
                0,
                0.44033095240592957
            ],
            "scale" : [
                0.16249999403953552,
                2.5,
                0.16249999403953552
            ],
            "translation" : [
                0,
                -1.748856782913208,
                -2.218750476837158
            ]
        },
        {
            "mesh" : 2,
            "name" : "Sphere.002",
            "scale" : [
                0.800000011920929,
                0.800000011920929,
                0.800000011920929
            ],
            "translation" : [
                0,
                -3.2068123817443848,
                -4.046689033508301
            ]
        },
        {
            "mesh" : 3,
            "name" : "Sphere.001",
            "scale" : [
                0.800000011920929,
                0.800000011920929,
                0.800000011920929
            ],
            "translation" : [
                0,
                -3.2015953063964844,
                4.065474033355713
            ]
        },
        {
            "mesh" : 0,
            "name" : "Cylinder",
            "rotation" : [
                0.8978355526924133,
                0,
                0,
                0.44033095240592957
            ],
            "scale" : [
                0.16249999403953552,
                2.5,
                0.16249999403953552
            ],
            "translation" : [
                0,
                -2.0165555477142334,
                2.60299015045166
            ]
        },
        {
            "mesh" : 4,
            "name" : "Sphere"
        },
        {
            "name" : "Lamp",
            "rotation" : [
                0.16907575726509094,
                0.7558803558349609,
                -0.27217137813568115,
                0.570947527885437
            ],
            "translation" : [
                4.076245307922363,
                5.903861999511719,
                -1.0054539442062378
            ]
        },
        {
            "name" : "Camera",
            "rotation" : [
                0.483536034822464,
                0.33687159419059753,
                -0.20870360732078552,
                0.7804827094078064
            ],
            "translation" : [
                7.481131553649902,
                5.34366512298584,
                6.5076398849487305
            ]
        }
    ],
    "materials" : [
        {
            "doubleSided" : true,
            "name" : "Material.002",
            "pbrMetallicRoughness" : {
                "baseColorFactor" : [
                    0,
                    0.00431111641228199,
                    0.8000000715255737,
                    1
                ],
                "metallicFactor" : 0,
                "roughnessFactor" : 0.5
            }
        },
        {
            "doubleSided" : true,
            "name" : "Material.003",
            "pbrMetallicRoughness" : {
                "baseColorFactor" : [
                    0,
                    0.00112679332960397,
                    0.8000000715255737,
                    1
                ],
                "metallicFactor" : 0,
                "roughnessFactor" : 0.5
            }
        },
        {
            "doubleSided" : true,
            "name" : "Material.001",
            "pbrMetallicRoughness" : {
                "baseColorFactor" : [
                    0.8000000715255737,
                    0.00988881103694439,
                    0,
                    1
                ],
                "metallicFactor" : 0,
                "roughnessFactor" : 0.5
            }
        }
    ],
    "meshes" : [
        {
            "name" : "Cylinder",
            "primitives" : [
                {
                    "attributes" : {
                        "POSITION" : 0,
                        "NORMAL" : 1
                    },
                    "indices" : 2
                }
            ]
        },
        {
            "name" : "Cylinder.001",
            "primitives" : [
                {
                    "attributes" : {
                        "POSITION" : 3,
                        "NORMAL" : 4
                    },
                    "indices" : 2
                }
            ]
        },
        {
            "name" : "Sphere.002",
            "primitives" : [
                {
                    "attributes" : {
                        "POSITION" : 5,
                        "NORMAL" : 6
                    },
                    "indices" : 7,
                    "material" : 0
                }
            ]
        },
        {
            "name" : "Sphere.001",
            "primitives" : [
                {
                    "attributes" : {
                        "POSITION" : 8,
                        "NORMAL" : 9
                    },
                    "indices" : 7,
                    "material" : 1
                }
            ]
        },
        {
            "name" : "Sphere",
            "primitives" : [
                {
                    "attributes" : {
                        "POSITION" : 10,
                        "NORMAL" : 11
                    },
                    "indices" : 7,
                    "material" : 2
                }
            ]
        }
    ],
    "accessors" : [
        {
            "bufferView" : 0,
            "componentType" : 5126,
            "count" : 192,
            "max" : [
                1,
                1,
                1
            ],
            "min" : [
                -1,
                -1,
                -1
            ],
            "type" : "VEC3"
        },
        {
            "bufferView" : 1,
            "componentType" : 5126,
            "count" : 192,
            "type" : "VEC3"
        },
        {
            "bufferView" : 2,
            "componentType" : 5123,
            "count" : 372,
            "type" : "SCALAR"
        },
        {
            "bufferView" : 3,
            "componentType" : 5126,
            "count" : 192,
            "max" : [
                1,
                1,
                1
            ],
            "min" : [
                -1,
                -1,
                -1
            ],
            "type" : "VEC3"
        },
        {
            "bufferView" : 4,
            "componentType" : 5126,
            "count" : 192,
            "type" : "VEC3"
        },
        {
            "bufferView" : 5,
            "componentType" : 5126,
            "count" : 1984,
            "max" : [
                1.000000238418579,
                1,
                1.0000003576278687
            ],
            "min" : [
                -0.9999998211860657,
                -1,
                -1
            ],
            "type" : "VEC3"
        },
        {
            "bufferView" : 6,
            "componentType" : 5126,
            "count" : 1984,
            "type" : "VEC3"
        },
        {
            "bufferView" : 7,
            "componentType" : 5123,
            "count" : 2880,
            "type" : "SCALAR"
        },
        {
            "bufferView" : 8,
            "componentType" : 5126,
            "count" : 1984,
            "max" : [
                1.000000238418579,
                1,
                1.0000003576278687
            ],
            "min" : [
                -0.9999998211860657,
                -1,
                -1
            ],
            "type" : "VEC3"
        },
        {
            "bufferView" : 9,
            "componentType" : 5126,
            "count" : 1984,
            "type" : "VEC3"
        },
        {
            "bufferView" : 10,
            "componentType" : 5126,
            "count" : 1984,
            "max" : [
                1.000000238418579,
                1,
                1.0000003576278687
            ],
            "min" : [
                -0.9999998211860657,
                -1,
                -1
            ],
            "type" : "VEC3"
        },
        {
            "bufferView" : 11,
            "componentType" : 5126,
            "count" : 1984,
            "type" : "VEC3"
        }
    ],
    "bufferViews" : [
        {
            "buffer" : 0,
            "byteLength" : 2304,
            "byteOffset" : 0
        },
        {
            "buffer" : 0,
            "byteLength" : 2304,
            "byteOffset" : 2304
        },
        {
            "buffer" : 0,
            "byteLength" : 744,
            "byteOffset" : 4608
        },
        {
            "buffer" : 0,
            "byteLength" : 2304,
            "byteOffset" : 5352
        },
        {
            "buffer" : 0,
            "byteLength" : 2304,
            "byteOffset" : 7656
        },
        {
            "buffer" : 0,
            "byteLength" : 23808,
            "byteOffset" : 9960
        },
        {
            "buffer" : 0,
            "byteLength" : 23808,
            "byteOffset" : 33768
        },
        {
            "buffer" : 0,
            "byteLength" : 5760,
            "byteOffset" : 57576
        },
        {
            "buffer" : 0,
            "byteLength" : 23808,
            "byteOffset" : 63336
        },
        {
            "buffer" : 0,
            "byteLength" : 23808,
            "byteOffset" : 87144
        },
        {
            "buffer" : 0,
            "byteLength" : 23808,
            "byteOffset" : 110952
        },
        {
            "buffer" : 0,
            "byteLength" : 23808,
            "byteOffset" : 134760
        }
    ],
    "buffers" : [
        {
            "byteLength" : 158568,
            "uri" : "data:application/octet-stream;base64,"
        }
    ]
}
