{
    "asset" : {
        "generator" : "Khronos glTF Blender I/O v1.5.17",
        "version" : "2.0"
    },
    "scene" : 0,
    "scenes" : [
        {
            "name" : "Scene",
            "nodes" : [
                0,
                1,
                2,
                3,
                4,
                5,
                6,
                7,
                8,
                9,
                10,
                11,
                12
            ]
        }
    ],
    "nodes" : [
        {
            "mesh" : 0,
            "name" : "Cylinder.004",
            "scale" : [
                0.05315500125288963,
                0.7441699504852295,
                0.05315500125288963
            ],
            "translation" : [
                -0.2635349631309509,
                -1.312752604484558,
                -0.05243629217147827
            ]
        },
        {
            "mesh" : 0,
            "name" : "Cylinder.003",
            "scale" : [
                0.05315500125288963,
                0.7441699504852295,
                0.05315500125288963
            ],
            "translation" : [
                0.15578830242156982,
                -1.3751651048660278,
                0
            ]
        },
        {
            "mesh" : 0,
            "name" : "Cylinder.002",
            "rotation" : [
                -0.474161833524704,
                0.15865235030651093,
                -0.8212723731994629,
                0.27479392290115356
            ],
            "scale" : [
                0.15000000596046448,
                2.0999999046325684,
                0.15000000596046448
            ],
            "translation" : [
                -1.0560554265975952,
                2.1624884605407715,
                1.6724486351013184
            ]
        },
        {
            "mesh" : 1,
            "name" : "Cylinder.001",
            "rotation" : [
                0.4738841950893402,
                -0.15947967767715454,
                -0.820791482925415,
                0.2762269079685211
            ],
            "scale" : [
                0.15000000596046448,
                2.0999999046325684,
                0.15000000596046448
            ],
            "translation" : [
                -1.1420466899871826,
                2.001232147216797,
                -1.679312825202942
            ]
        },
        {
            "mesh" : 2,
            "name" : "Cylinder",
            "rotation" : [
                -0.9472103118896484,
                0.32061293721199036,
                0,
                -1.401443672222058e-08
            ],
            "scale" : [
                0.15000000596046448,
                2.0999999046325684,
                0.15000000596046448
            ],
            "translation" : [
                1.942804217338562,
                2.066972494125366,
                0
            ]
        },
        {
            "mesh" : 3,
            "name" : "Sphere"
        },
        {
            "name" : "Lamp",
            "rotation" : [
                0.16907575726509094,
                0.7558803558349609,
                -0.27217137813568115,
                0.570947527885437
            ],
            "translation" : [
                4.076245307922363,
                5.903861999511719,
                -1.0054539442062378
            ]
        },
        {
            "name" : "Camera.001",
            "rotation" : [
                0.483536034822464,
                0.33687159419059753,
                -0.20870360732078552,
                0.7804827094078064
            ],
            "translation" : [
                7.481131553649902,
                5.34366512298584,
                6.5076398849487305
            ]
        },
        {
            "name" : "Light",
            "rotation" : [
                0.16907575726509094,
                0.7558803558349609,
                -0.27217137813568115,
                0.570947527885437
            ],
            "translation" : [
                4.076245307922363,
                5.903861999511719,
                -1.0054539442062378
            ]
        },
        {
            "name" : "Camera",
            "rotation" : [
                0.483536034822464,
                0.33687159419059753,
                -0.20870360732078552,
                0.7804827094078064
            ],
            "translation" : [
                7.358891487121582,
                4.958309173583984,
                6.925790786743164
            ]
        },
        {
            "mesh" : 4,
            "name" : "Sphere.001",
            "scale" : [
                0.8058210015296936,
                0.8058210015296936,
                0.8058210015296936
            ],
            "translation" : [
                -1.6177016496658325,
                3.52803897857666,
                2.5179991722106934
            ]
        },
        {
            "mesh" : 5,
            "name" : "Sphere.002",
            "scale" : [
                0.800000011920929,
                0.800000011920929,
                0.800000011920929
            ],
            "translation" : [
                3.0125644207000732,
                3.6164512634277344,
                0
            ]
        },
        {
            "mesh" : 6,
            "name" : "Sphere.003",
            "scale" : [
                0.800000011920929,
                0.800000011920929,
                0.800000011920929
            ],
            "translation" : [
                -1.683184027671814,
                3.304830312728882,
                -2.460813045501709
            ]
        }
    ],
    "materials" : [
        {
            "doubleSided" : true,
            "name" : "Material.004",
            "pbrMetallicRoughness" : {
                "baseColorFactor" : [
                    0.00491357734426856,
                    0,
                    0.8000000715255737,
                    1
                ],
                "metallicFactor" : 0,
                "roughnessFactor" : 0.5
            }
        },
        {
            "doubleSided" : true,
            "name" : "Material.002",
            "pbrMetallicRoughness" : {
                "baseColorFactor" : [
                    0.8000000715255737,
                    0.006014574784785509,
                    0,
                    1
                ],
                "metallicFactor" : 0,
                "roughnessFactor" : 0.5
            }
        }
    ],
    "meshes" : [
        {
            "name" : "Cylinder.002",
            "primitives" : [
                {
                    "attributes" : {
                        "POSITION" : 0,
                        "NORMAL" : 1
                    },
                    "indices" : 2
                }
            ]
        },
        {
            "name" : "Cylinder.001",
            "primitives" : [
                {
                    "attributes" : {
                        "POSITION" : 3,
                        "NORMAL" : 4
                    },
                    "indices" : 2
                }
            ]
        },
        {
            "name" : "Cylinder",
            "primitives" : [
                {
                    "attributes" : {
                        "POSITION" : 5,
                        "NORMAL" : 6
                    },
                    "indices" : 2
                }
            ]
        },
        {
            "name" : "Sphere",
            "primitives" : [
                {
                    "attributes" : {
                        "POSITION" : 7,
                        "NORMAL" : 8
                    },
                    "indices" : 9,
                    "material" : 0
                }
            ]
        },
        {
            "name" : "Sphere.004",
            "primitives" : [
                {
                    "attributes" : {
                        "POSITION" : 10,
                        "NORMAL" : 11,
                        "TEXCOORD_0" : 12
                    },
                    "indices" : 13,
                    "material" : 1
                }
            ]
        },
        {
            "name" : "Sphere.005",
            "primitives" : [
                {
                    "attributes" : {
                        "POSITION" : 14,
                        "NORMAL" : 15,
                        "TEXCOORD_0" : 16
                    },
                    "indices" : 17,
                    "material" : 1
                }
            ]
        },
        {
            "name" : "Sphere.006",
            "primitives" : [
                {
                    "attributes" : {
                        "POSITION" : 18,
                        "NORMAL" : 19,
                        "TEXCOORD_0" : 20
                    },
                    "indices" : 21,
                    "material" : 1
                }
            ]
        }
    ],
    "accessors" : [
        {
            "bufferView" : 0,
            "componentType" : 5126,
            "count" : 272,
            "max" : [
                1,
                1,
                1
            ],
            "min" : [
                -1,
                -1,
                -1
            ],
            "type" : "VEC3"
        },
        {
            "bufferView" : 1,
            "componentType" : 5126,
            "count" : 272,
            "type" : "VEC3"
        },
        {
            "bufferView" : 2,
            "componentType" : 5123,
            "count" : 372,
            "type" : "SCALAR"
        },
        {
            "bufferView" : 3,
            "componentType" : 5126,
            "count" : 272,
            "max" : [
                1,
                1,
                1
            ],
            "min" : [
                -1,
                -1,
                -1
            ],
            "type" : "VEC3"
        },
        {
            "bufferView" : 4,
            "componentType" : 5126,
            "count" : 272,
            "type" : "VEC3"
        },
        {
            "bufferView" : 5,
            "componentType" : 5126,
            "count" : 272,
            "max" : [
                1,
                1,
                1
            ],
            "min" : [
                -1,
                -1,
                -1
            ],
            "type" : "VEC3"
        },
        {
            "bufferView" : 6,
            "componentType" : 5126,
            "count" : 272,
            "type" : "VEC3"
        },
        {
            "bufferView" : 7,
            "componentType" : 5126,
            "count" : 2848,
            "max" : [
                1.000000238418579,
                1,
                1.0000003576278687
            ],
            "min" : [
                -0.9999998211860657,
                -1,
                -1
            ],
            "type" : "VEC3"
        },
        {
            "bufferView" : 8,
            "componentType" : 5126,
            "count" : 2848,
            "type" : "VEC3"
        },
        {
            "bufferView" : 9,
            "componentType" : 5123,
            "count" : 2880,
            "type" : "SCALAR"
        },
        {
            "bufferView" : 10,
            "componentType" : 5126,
            "count" : 1984,
            "max" : [
                1.000000238418579,
                1,
                1.0000003576278687
            ],
            "min" : [
                -0.9999998211860657,
                -1,
                -1
            ],
            "type" : "VEC3"
        },
        {
            "bufferView" : 11,
            "componentType" : 5126,
            "count" : 1984,
            "type" : "VEC3"
        },
        {
            "bufferView" : 12,
            "componentType" : 5126,
            "count" : 1984,
            "type" : "VEC2"
        },
        {
            "bufferView" : 13,
            "componentType" : 5123,
            "count" : 2880,
            "type" : "SCALAR"
        },
        {
            "bufferView" : 14,
            "componentType" : 5126,
            "count" : 1984,
            "max" : [
                1.000000238418579,
                1,
                1.0000003576278687
            ],
            "min" : [
                -0.9999998211860657,
                -1,
                -1
            ],
            "type" : "VEC3"
        },
        {
            "bufferView" : 15,
            "componentType" : 5126,
            "count" : 1984,
            "type" : "VEC3"
        },
        {
            "bufferView" : 16,
            "componentType" : 5126,
            "count" : 1984,
            "type" : "VEC2"
        },
        {
            "bufferView" : 17,
            "componentType" : 5123,
            "count" : 2880,
            "type" : "SCALAR"
        },
        {
            "bufferView" : 18,
            "componentType" : 5126,
            "count" : 1984,
            "max" : [
                1.000000238418579,
                1,
                1.0000003576278687
            ],
            "min" : [
                -0.9999998211860657,
                -1,
                -1
            ],
            "type" : "VEC3"
        },
        {
            "bufferView" : 19,
            "componentType" : 5126,
            "count" : 1984,
            "type" : "VEC3"
        },
        {
            "bufferView" : 20,
            "componentType" : 5126,
            "count" : 1984,
            "type" : "VEC2"
        },
        {
            "bufferView" : 21,
            "componentType" : 5123,
            "count" : 2880,
            "type" : "SCALAR"
        }
    ],
    "bufferViews" : [
        {
            "buffer" : 0,
            "byteLength" : 3264,
            "byteOffset" : 0
        },
        {
            "buffer" : 0,
            "byteLength" : 3264,
            "byteOffset" : 3264
        },
        {
            "buffer" : 0,
            "byteLength" : 744,
            "byteOffset" : 6528
        },
        {
            "buffer" : 0,
            "byteLength" : 3264,
            "byteOffset" : 7272
        },
        {
            "buffer" : 0,
            "byteLength" : 3264,
            "byteOffset" : 10536
        },
        {
            "buffer" : 0,
            "byteLength" : 3264,
            "byteOffset" : 13800
        },
        {
            "buffer" : 0,
            "byteLength" : 3264,
            "byteOffset" : 17064
        },
        {
            "buffer" : 0,
            "byteLength" : 34176,
            "byteOffset" : 20328
        },
        {
            "buffer" : 0,
            "byteLength" : 34176,
            "byteOffset" : 54504
        },
        {
            "buffer" : 0,
            "byteLength" : 5760,
            "byteOffset" : 88680
        },
        {
            "buffer" : 0,
            "byteLength" : 23808,
            "byteOffset" : 94440
        },
        {
            "buffer" : 0,
            "byteLength" : 23808,
            "byteOffset" : 118248
        },
        {
            "buffer" : 0,
            "byteLength" : 15872,
            "byteOffset" : 142056
        },
        {
            "buffer" : 0,
            "byteLength" : 5760,
            "byteOffset" : 157928
        },
        {
            "buffer" : 0,
            "byteLength" : 23808,
            "byteOffset" : 163688
        },
        {
            "buffer" : 0,
            "byteLength" : 23808,
            "byteOffset" : 187496
        },
        {
            "buffer" : 0,
            "byteLength" : 15872,
            "byteOffset" : 211304
        },
        {
            "buffer" : 0,
            "byteLength" : 5760,
            "byteOffset" : 227176
        },
        {
            "buffer" : 0,
            "byteLength" : 23808,
            "byteOffset" : 232936
        },
        {
            "buffer" : 0,
            "byteLength" : 23808,
            "byteOffset" : 256744
        },
        {
            "buffer" : 0,
            "byteLength" : 15872,
            "byteOffset" : 280552
        },
        {
            "buffer" : 0,
            "byteLength" : 5760,
            "byteOffset" : 296424
        }
    ],
    "buffers" : [
        {
            "byteLength" : 302184,
            "uri" : "data:application/octet-stream;base64,"
        }
    ]
}
